<?xml version="1.0" encoding="UTF-8" standalone="no"?>
<svg width="23px" height="24px" viewBox="0 0 23 24" version="1.1" xmlns="http://www.w3.org/2000/svg" xmlns:xlink="http://www.w3.org/1999/xlink" xmlns:sketch="http://www.bohemiancoding.com/sketch/ns">
    <!-- Generator: Sketch 3.1.1 (8761) - http://www.bohemiancoding.com/sketch -->
    <title>icon-lab</title>
    <desc>Created with Sketch.</desc>
    <defs></defs>
    <g id="symbols" stroke="none" stroke-width="1" fill="none" fill-rule="evenodd" sketch:type="MSPage">
        <g id="icons" sketch:type="MSArtboardGroup" transform="translate(-133.000000, -141.000000)" fill="#FFFFFF">
            <g id="icon-lab" sketch:type="MSLayerGroup" transform="translate(133.000000, 141.000000)">
                <path d="M22.2344034,20.6249984 L14.3750191,8.23435859 L14.3750191,1.99997616 L15.3750203,1.99997616 C15.9218959,1.99997616 16.3750215,1.54685062 16.3750215,0.999974966 C16.3750215,0.453099314 15.9218959,-2.62260437e-05 15.3750203,-2.62260437e-05 L7.37501073,-2.62260437e-05 C6.82813508,-2.62260437e-05 6.37500954,0.453099314 6.37500954,0.999974966 C6.37500954,1.54685062 6.82813508,1.99997616 7.37501073,1.99997616 L8.37501192,1.99997616 L8.37501192,8.23435859 L0.515627552,20.6249984 C-0.656248845,22.4843756 0.171877142,24.0000024 2.37500477,24.0000024 L20.3750262,24.0000024 C22.5781539,24.0000024 23.4062798,22.4843756 22.2344034,20.6249984 L22.2344034,20.6249984 Z M10.0625139,9.29685986 L10.3750143,8.81248428 L10.3750143,8.23435859 L10.3750143,1.99997616 L12.3750167,1.99997616 L12.3750167,8.23435859 L12.3750167,8.81248428 L12.6875171,9.29685986 L16.9375221,15.9999928 L5.81250887,15.9999928 L10.0625139,9.29685986 Z" id="" sketch:type="MSShapeGroup"></path>
            </g>
        </g>
    </g>
</svg>