<?xml version="1.0" encoding="UTF-8" standalone="no"?>
<svg width="47px" height="63px" viewBox="0 0 47 63" version="1.1" xmlns="http://www.w3.org/2000/svg" xmlns:xlink="http://www.w3.org/1999/xlink" xmlns:sketch="http://www.bohemiancoding.com/sketch/ns">
    <!-- Generator: Sketch 3.1.1 (8761) - http://www.bohemiancoding.com/sketch -->
    <title>icon-js</title>
    <desc>Created with Sketch.</desc>
    <defs></defs>
    <g id="symbols" stroke="none" stroke-width="1" fill="none" fill-rule="evenodd" sketch:type="MSPage">
        <g id="icons" sketch:type="MSArtboardGroup" transform="translate(-124.000000, -176.000000)">
            <g id="icon-js-2" sketch:type="MSLayerGroup" transform="translate(126.000000, 177.000000)">
                <path d="M22,45 C34.4264069,45 44.5,34.9264069 44.5,22.5 C44.5,10.0735931 34.4264069,0 22,0 C9.57359313,0 -0.5,10.0735931 -0.5,22.5 C-0.5,34.9264069 9.57359313,45 22,45 Z" id="Oval-18" stroke="#FFFFFF" stroke-width="2" fill="#00A3D2" sketch:type="MSShapeGroup"></path>
                <path d="M13.1742106,31.2511579 C12.2384165,31.1041045 11.3293729,30.8100022 10.4470528,30.3688421 C9.56473257,29.927682 8.78268776,29.3327932 8.10089489,28.5841579 C7.41910201,27.8355226 6.87434431,26.926479 6.46660543,25.857 C6.05886655,24.787521 5.85500017,23.5442703 5.85500017,22.1272106 C5.85500017,20.7235194 6.05886655,19.4836107 6.46660543,18.4074475 C6.87434431,17.3312842 7.41910201,16.4122144 8.10089489,15.6502106 C8.78268776,14.8882068 9.56473257,14.2799498 10.4470528,13.8254212 C11.3293729,13.3708926 12.2384165,13.0567379 13.1742106,12.8829475 L13.6554738,15.0285791 C13.1875767,15.135527 12.6561873,15.3260251 12.0612896,15.6000791 C11.4663919,15.8741331 10.9015817,16.2818658 10.3668422,16.8232896 C9.83210272,17.3647133 9.38092303,18.0632063 9.01328961,18.9187896 C8.6456562,19.7743728 8.46184225,20.8438358 8.46184225,22.1272106 C8.46184225,23.3571114 8.65568242,24.3931537 9.04336856,25.2353684 C9.43105471,26.0775832 9.90228683,26.769392 10.4570791,27.3108158 C11.0118713,27.8522395 11.5833656,28.2599723 12.1715791,28.5340263 C12.7597925,28.8080803 13.2544191,28.9852101 13.6554738,29.065421 L13.1742106,31.2511579 Z M20.4533158,25.7166316 C20.4533158,25.262103 20.603709,24.9011593 20.9045,24.6337895 C21.205291,24.3664197 21.5829451,24.2327369 22.0374737,24.2327369 C22.7727405,24.2327369 23.3275244,24.473366 23.7018421,24.9546316 C24.0761598,25.4358972 24.2633158,26.0307859 24.2633158,26.7393158 C24.2633158,27.3408977 24.1463433,27.8889975 23.9123947,28.3836316 C23.6784462,28.8782656 23.3743177,29.3060508 23,29.667 C22.6256823,30.0279491 22.2079234,30.3220515 21.7467105,30.5493158 C21.2854977,30.77658 20.8276339,30.9303153 20.3731053,31.0105263 L19.8316842,29.9076315 C20.1525279,29.8274206 20.4767089,29.7137902 20.8042369,29.5667368 C21.1317648,29.4196835 21.4292092,29.2358695 21.696579,29.0152895 C21.9639487,28.7947094 22.1878675,28.5373699 22.3683421,28.2432631 C22.5488167,27.9491564 22.6524209,27.6283175 22.6791579,27.2807368 C22.2781033,27.3609478 21.9372119,27.370974 21.6564737,27.3108158 C21.3757355,27.2506576 21.1451325,27.1437113 20.9646579,26.9899737 C20.7841833,26.8362361 20.6538425,26.6490801 20.5736316,26.4285 C20.4934207,26.20792 20.4533158,25.9706329 20.4533158,25.7166316 L20.4533158,25.7166316 Z M20.4733684,18.4174738 C20.4733684,17.9495767 20.6204196,17.5786067 20.9145263,17.3045527 C21.2086331,17.0304987 21.5963134,16.8934738 22.077579,16.8934738 C22.5855815,16.8934738 22.9866301,17.0304987 23.2807368,17.3045527 C23.5748436,17.5786067 23.7218947,17.9495767 23.7218947,18.4174738 C23.7218947,18.8853708 23.5748436,19.2596829 23.2807368,19.5404211 C22.9866301,19.8211594 22.5855815,19.9615264 22.077579,19.9615264 C21.5963134,19.9615264 21.2086331,19.8211594 20.9145263,19.5404211 C20.6204196,19.2596829 20.4733684,18.8853708 20.4733684,18.4174738 L20.4733684,18.4174738 Z M30.5197368,29.065421 C30.9207914,28.9852101 31.415418,28.8080803 32.0036315,28.5340263 C32.591845,28.2599723 33.1633392,27.8522395 33.7181315,27.3108158 C34.2729237,26.769392 34.7441558,26.0775832 35.131842,25.2353684 C35.5195281,24.3931537 35.7133683,23.3571114 35.7133683,22.1272106 C35.7133683,20.8438358 35.5295543,19.7743728 35.1619209,18.9187896 C34.7942875,18.0632063 34.3431078,17.3647133 33.8083683,16.8232896 C33.2736288,16.2818658 32.7088187,15.8741331 32.113921,15.6000791 C31.5190233,15.3260251 30.9876338,15.135527 30.5197368,15.0285791 L31.0009999,12.8829475 C31.9367941,13.0567379 32.8458376,13.3708926 33.7281578,13.8254212 C34.610478,14.2799498 35.3925228,14.8882068 36.0743157,15.6502106 C36.7561085,16.4122144 37.3008662,17.3312842 37.7086051,18.4074475 C38.116344,19.4836107 38.3202104,20.7235194 38.3202104,22.1272106 C38.3202104,23.5442703 38.116344,24.787521 37.7086051,25.857 C37.3008662,26.926479 36.7561085,27.8355226 36.0743157,28.5841579 C35.3925228,29.3327932 34.610478,29.927682 33.7281578,30.3688421 C32.8458376,30.8100022 31.9367941,31.1041045 31.0009999,31.2511579 L30.5197368,29.065421 Z" id="(;)" fill="#FFFFFF" sketch:type="MSShapeGroup"></path>
                <text id="JS" sketch:type="MSTextLayer" font-family="PT Mono" font-size="13" font-weight="bold" letter-spacing="1.72727275" fill="#FFFFFF">
                    <tspan x="13.5" y="61">J</tspan>
                    <tspan x="23.0272727" y="61" letter-spacing="1.49173558">S</tspan>
                </text>
            </g>
        </g>
    </g>
</svg>