<?xml version="1.0" encoding="UTF-8" standalone="no"?>
<svg width="47px" height="63px" viewBox="0 0 47 63" version="1.1" xmlns="http://www.w3.org/2000/svg" xmlns:xlink="http://www.w3.org/1999/xlink" xmlns:sketch="http://www.bohemiancoding.com/sketch/ns">
    <!-- Generator: Sketch 3.1.1 (8761) - http://www.bohemiancoding.com/sketch -->
    <title>icon-css</title>
    <desc>Created with Sketch.</desc>
    <defs></defs>
    <g id="symbols" stroke="none" stroke-width="1" fill="none" fill-rule="evenodd" sketch:type="MSPage">
        <g id="icons" sketch:type="MSArtboardGroup" transform="translate(-194.000000, -176.000000)">
            <g id="{}-+-Oval-18" sketch:type="MSLayerGroup" transform="translate(195.000000, 177.000000)">
                <circle id="Oval-17" stroke="#FFFFFF" stroke-width="2" fill="#D28400" sketch:type="MSShapeGroup" cx="22.5" cy="22.5" r="22.5"></circle>
                <path d="M15.1380527,26.089421 C15.1380527,25.1135214 14.8974235,24.4384229 14.416158,24.0641052 C13.9348924,23.6897876 13.2397415,23.5026316 12.3306843,23.5026316 L12.3306843,21.4973684 C13.25311,21.4973684 13.951603,21.3001862 14.4261843,20.9058158 C14.9007656,20.5114454 15.1380527,19.8731097 15.1380527,18.9907895 L15.1380527,16.4240527 C15.1380527,15.4080476 15.4020764,14.6126345 15.9301317,14.0377896 C16.4581869,13.4629446 17.2435738,13.1755264 18.2863158,13.1755264 L21.2942105,13.1755264 L21.2942105,15.3813159 L19.69,15.3813159 C19.3023139,15.3813159 18.9781329,15.4080524 18.7174474,15.4615264 C18.4567619,15.5150003 18.2462114,15.6152625 18.0857895,15.7623159 C17.9253677,15.9093692 17.8117372,16.1132356 17.7448948,16.3739211 C17.6780524,16.6346066 17.6446316,16.9721559 17.6446316,17.386579 L17.6446316,19.672579 C17.6446316,20.5548992 17.4040025,21.2066032 16.9227369,21.6277105 C16.4414713,22.0488179 15.8131618,22.2927891 15.0377896,22.3596316 L15.0377896,22.5601579 C15.7997934,22.6136318 16.4247608,22.8709714 16.9127106,23.3321842 C17.4006604,23.793397 17.6446316,24.4584693 17.6446316,25.327421 L17.6446316,27.613421 C17.6446316,28.0278441 17.6780524,28.3653934 17.7448948,28.6260789 C17.8117372,28.8867644 17.9253677,29.0906308 18.0857895,29.2376841 C18.2462114,29.3847375 18.460104,29.4849997 18.7274737,29.5384736 C18.9948435,29.5919476 19.3223665,29.6186841 19.7100527,29.6186841 L21.2942105,29.6186841 L21.2942105,31.8244736 L18.2863158,31.8244736 C17.2836793,31.8244736 16.5083186,31.5571078 15.9602106,31.0223683 C15.4121026,30.4876288 15.1380527,29.6788474 15.1380527,28.5959999 L15.1380527,26.089421 Z M30.518421,28.5959999 C30.518421,29.6788474 30.2443711,30.4876288 29.6962631,31.0223683 C29.1481551,31.5571078 28.3727944,31.8244736 27.3701579,31.8244736 L24.3622631,31.8244736 L24.3622631,29.6186841 L25.946421,29.6186841 C26.3341072,29.6186841 26.6616302,29.5919476 26.929,29.5384736 C27.1963697,29.4849997 27.4102623,29.3847375 27.5706842,29.2376841 C27.731106,29.0906308 27.8447365,28.8867644 27.9115789,28.6260789 C27.9784213,28.3653934 28.0118421,28.0278441 28.0118421,27.613421 L28.0118421,25.327421 C28.0118421,24.4584693 28.2558133,23.793397 28.7437631,23.3321842 C29.2317129,22.8709714 29.8566803,22.6136318 30.6186841,22.5601579 L30.6186841,22.3596316 C29.8433118,22.2927891 29.2150023,22.0488179 28.7337368,21.6277105 C28.2524712,21.2066032 28.0118421,20.5548992 28.0118421,19.672579 L28.0118421,17.386579 C28.0118421,16.9721559 27.9750793,16.6346066 27.9015526,16.3739211 C27.8280259,16.1132356 27.7110534,15.9093692 27.5506315,15.7623159 C27.3902097,15.6152625 27.1796592,15.5150003 26.9189736,15.4615264 C26.6582881,15.4080524 26.3407913,15.3813159 25.9664737,15.3813159 L24.3622631,15.3813159 L24.3622631,13.1755264 L27.3701579,13.1755264 C28.4128999,13.1755264 29.1982868,13.4629446 29.726342,14.0377896 C30.2543973,14.6126345 30.518421,15.4080476 30.518421,16.4240527 L30.518421,18.9907895 C30.518421,19.8731097 30.7557081,20.5114454 31.2302894,20.9058158 C31.7048707,21.3001862 32.4033637,21.4973684 33.3257894,21.4973684 L33.3257894,23.5026316 C32.4167322,23.5026316 31.7215813,23.6897876 31.2403157,24.0641052 C30.7590502,24.4384229 30.518421,25.1135214 30.518421,26.089421 L30.518421,28.5959999 Z" id="{}" fill="#FFFFFF" sketch:type="MSShapeGroup"></path>
                <text id="CSS" sketch:type="MSTextLayer" font-family="PT Mono" font-size="13" font-weight="bold" letter-spacing="1.72727275" fill="#FFFFFF">
                    <tspan x="8.5" y="61">CS</tspan>
                    <tspan x="27.5545455" y="61" letter-spacing="1.49173558">S</tspan>
                </text>
            </g>
        </g>
    </g>
</svg>