<?xml version="1.0" encoding="UTF-8" standalone="no"?>
<svg width="29px" height="23px" viewBox="0 0 29 23" version="1.1" xmlns="http://www.w3.org/2000/svg" xmlns:xlink="http://www.w3.org/1999/xlink" xmlns:sketch="http://www.bohemiancoding.com/sketch/ns">
    <!-- Generator: Sketch 3.1.1 (8761) - http://www.bohemiancoding.com/sketch -->
    <title>icon-blog</title>
    <desc>Created with Sketch.</desc>
    <defs></defs>
    <g id="symbols" stroke="none" stroke-width="1" fill="none" fill-rule="evenodd" sketch:type="MSPage">
        <g id="icons" sketch:type="MSArtboardGroup" transform="translate(-180.000000, -140.000000)" fill="#FFFFFF">
            <g id="icon-blog" sketch:type="MSLayerGroup" transform="translate(180.000000, 141.000000)">
                <path d="M14.2500165,16.2782077 L13.3750155,16.2782077 L13.3750155,14.7782059 L11.8750137,14.7782059 L11.8750137,13.9032049 L13.6875159,12.0907027 L16.0625187,14.4657056 L14.2500165,16.2782077 Z M21.1250247,5.02819432 C21.2656499,5.16881949 21.2500249,5.40319477 21.1093997,5.54381993 L15.6406432,11.0125765 C15.500018,11.1532016 15.2656428,11.1688266 15.1250176,11.0282015 C14.9843924,10.8875763 15.0000174,10.653201 15.1406426,10.5125759 L20.6093991,5.04381934 C20.7500243,4.90319417 20.9843996,4.88756915 21.1250247,5.02819432 L21.1250247,5.02819432 Z M22.3750262,14.3094554 C22.3750262,14.1063301 22.2500261,13.9344549 22.0625259,13.8563298 C21.8750256,13.7782047 21.6719004,13.8094548 21.5156502,13.965705 L20.515649,14.9657062 C20.4218989,15.0594563 20.3750238,15.1844564 20.3750238,15.3094566 L20.3750238,17.2782089 C20.3750238,18.6532106 19.2500225,19.7782119 17.8750209,19.7782119 L4.87500536,19.7782119 C3.50000373,19.7782119 2.37500238,18.6532106 2.37500238,17.2782089 L2.37500238,4.27819342 C2.37500238,2.90319178 3.50000373,1.77819044 4.87500536,1.77819044 L17.8750209,1.77819044 C18.1093961,1.77819044 18.3437714,1.80944048 18.5781467,1.87194056 C18.7500219,1.93444063 18.9375221,1.88756557 19.0781473,1.74694041 L19.8437732,0.981314494 C19.9687734,0.856314345 20.0156484,0.700064159 19.9843984,0.528188954 C19.9531483,0.371938767 19.8437732,0.2313136 19.703148,0.168813525 C19.1250224,-0.0968117913 18.5000216,-0.22181194 17.8750209,-0.22181194 L4.87500536,-0.22181194 C2.3906274,-0.22181194 0.375,1.79381546 0.375,4.27819342 L0.375,17.2782089 C0.375,19.7625869 2.3906274,21.7782143 4.87500536,21.7782143 L17.8750209,21.7782143 C20.3593988,21.7782143 22.3750262,19.7625869 22.3750262,17.2782089 L22.3750262,14.3094554 Z M20.8750244,2.77819164 L10.3750119,13.2782042 L10.3750119,17.7782095 L14.8750173,17.7782095 L25.3750298,7.278197 L20.8750244,2.77819164 Z M27.8125327,4.84069409 C28.3906584,4.26256841 28.3906584,3.29381725 27.8125327,2.71569156 L25.4375299,0.34068873 C24.8594042,-0.237436959 23.890653,-0.237436959 23.3125273,0.34068873 L21.8750256,1.77819044 L26.375031,6.27819581 L27.8125327,4.84069409 Z" id="ï„" sketch:type="MSShapeGroup"></path>
            </g>
        </g>
    </g>
</svg>