<?xml version="1.0" encoding="UTF-8" standalone="no"?>
<svg width="29px" height="24px" viewBox="0 0 29 24" version="1.1" xmlns="http://www.w3.org/2000/svg" xmlns:xlink="http://www.w3.org/1999/xlink" xmlns:sketch="http://www.bohemiancoding.com/sketch/ns">
    <!-- Generator: Sketch 3.1.1 (8761) - http://www.bohemiancoding.com/sketch -->
    <title>icon-work</title>
    <desc>Created with Sketch.</desc>
    <defs></defs>
    <g id="symbols" stroke="none" stroke-width="1" fill="none" fill-rule="evenodd" sketch:type="MSPage">
        <g id="icons" sketch:type="MSArtboardGroup" transform="translate(-80.000000, -139.000000)" fill="#FFFFFF">
            <g id="icon-work" sketch:type="MSLayerGroup" transform="translate(80.000000, 139.000000)">
                <path d="M10.3750119,4.0433333 L10.3750119,2.04333092 L18.3750215,2.04333092 L18.3750215,4.0433333 L10.3750119,4.0433333 Z M28.3750334,14.0433452 L17.8750209,14.0433452 L17.8750209,16.5433482 C17.8750209,17.0902239 17.4218953,17.5433494 16.8750197,17.5433494 L11.8750137,17.5433494 C11.3281381,17.5433494 10.8750125,17.0902239 10.8750125,16.5433482 L10.8750125,14.0433452 L0.375,14.0433452 L0.375,21.5433542 C0.375,22.9183558 1.50000134,24.0433571 2.87500298,24.0433571 L25.8750304,24.0433571 C27.250032,24.0433571 28.3750334,22.9183558 28.3750334,21.5433542 L28.3750334,14.0433452 Z M16.3750191,14.0433452 L12.3750143,14.0433452 L12.3750143,16.0433476 L16.3750191,16.0433476 L16.3750191,14.0433452 Z M28.3750334,6.54333628 C28.3750334,5.16833464 27.250032,4.0433333 25.8750304,4.0433333 L20.3750238,4.0433333 L20.3750238,1.54333032 C20.3750238,0.715204334 19.703148,0.0433285326 18.8750221,0.0433285326 L9.87501132,0.0433285326 C9.04688534,0.0433285326 8.37500954,0.715204334 8.37500954,1.54333032 L8.37500954,4.0433333 L2.87500298,4.0433333 C1.50000134,4.0433333 0.375,5.16833464 0.375,6.54333628 L0.375,12.5433434 L28.3750334,12.5433434 L28.3750334,6.54333628 Z" id="" sketch:type="MSShapeGroup"></path>
            </g>
        </g>
    </g>
</svg>