<?xml version="1.0" encoding="UTF-8" standalone="no"?>
<svg width="220px" height="27px" viewBox="0 0 220 27" version="1.1" xmlns="http://www.w3.org/2000/svg" xmlns:xlink="http://www.w3.org/1999/xlink" xmlns:sketch="http://www.bohemiancoding.com/sketch/ns">
    <!-- Generator: Sketch 3.0.2 (7799) - http://www.bohemiancoding.com/sketch -->
    <title>icons_social</title>
    <description>Created with Sketch.</description>
    <defs></defs>
    <g id="Page-1" stroke="none" stroke-width="1" fill="none" fill-rule="evenodd" sketch:type="MSPage">
        <g id="codepen-logo" sketch:type="MSLayerGroup" transform="translate(193.751953, 1.000000)" fill="#FFFFFF">
            <g id="Group" sketch:type="MSShapeGroup">
                <path d="M12.8000512,0 C5.7306624,0 0,5.7306624 0,12.8000512 C0,19.8695424 5.7306624,25.6 12.8000512,25.6 C19.8693376,25.6 25.6,19.8695424 25.6,12.8000512 C25.6,5.7306624 19.8693376,0 12.8000512,0 Z M20.7084544,10.3000064 C20.7070208,10.2900224 20.7045632,10.280448 20.7028736,10.270464 C20.6995456,10.2513152 20.6959616,10.2321664 20.6909952,10.2134272 C20.6880768,10.2021632 20.6839296,10.19136 20.680448,10.1805568 C20.6750208,10.1638656 20.6695936,10.1472256 20.6629376,10.1309952 C20.6582784,10.1197312 20.6529024,10.1085184 20.6477312,10.097664 C20.6405632,10.082304 20.6331392,10.0673024 20.6245888,10.0527616 C20.6183424,10.0419072 20.6117376,10.0314624 20.6052864,10.02112 C20.5960704,10.0069376 20.586752,9.9931648 20.576512,9.9798528 C20.5690368,9.96992 20.561152,9.9598848 20.5532672,9.9503104 C20.5424128,9.9378688 20.5311488,9.925376 20.5192704,9.9136512 C20.5103616,9.9045376 20.5015552,9.8953728 20.4922368,9.886976 C20.479744,9.8757632 20.4668416,9.8649088 20.4537344,9.8545664 C20.4435968,9.8466304 20.4335104,9.8386944 20.422912,9.8312192 C20.4189184,9.8287104 20.4154368,9.8253824 20.411648,9.8228736 L13.1772928,4.9999872 C12.948736,4.847616 12.651264,4.847616 12.4227072,4.9999872 L5.1884032,9.8228224 C5.1846656,9.8253312 5.1811328,9.8286592 5.1771904,9.831168 C5.1665408,9.8386432 5.1565568,9.8465792 5.1465728,9.8545152 C5.1332608,9.8649088 5.1203584,9.8757632 5.1080704,9.8869248 C5.098496,9.8953216 5.089792,9.9044352 5.0807808,9.9136 C5.0689536,9.9253248 5.0576896,9.9378176 5.0470912,9.9502592 C5.0389504,9.9598848 5.0310656,9.9698688 5.0235904,9.9798016 C5.0136064,9.9931136 5.0039808,10.0068864 4.995072,10.0210688 C4.9882112,10.0314624 4.98176,10.041856 4.9755136,10.0527104 C4.967168,10.0672512 4.9596928,10.0822528 4.9524224,10.0976128 C4.9472,10.108416 4.9417728,10.11968 4.937216,10.130944 C4.93056,10.1471744 4.9251328,10.1638144 4.9197568,10.1805056 C4.9161728,10.1913088 4.9122816,10.202112 4.9091072,10.213376 C4.9041408,10.2321152 4.9008128,10.251264 4.89728,10.2704128 C4.8956416,10.2803968 4.8931328,10.2899712 4.8918528,10.2999552 C4.8879104,10.329088 4.8856064,10.3586304 4.8856064,10.3886336 L4.8856064,15.21152 C4.8856064,15.241472 4.8878592,15.2710144 4.8918528,15.300608 C4.8931328,15.3102336 4.8956416,15.3201664 4.89728,15.3296896 C4.9008128,15.3488384 4.9041408,15.3679872 4.9091072,15.3867264 C4.9122816,15.3979904 4.9161728,15.4088448 4.9197568,15.419648 C4.9251328,15.4362368 4.93056,15.452928 4.937216,15.469568 C4.9417728,15.4809344 4.9472,15.4917376 4.9524224,15.502592 C4.959744,15.517952 4.9672192,15.5329024 4.9755136,15.547904 C4.98176,15.5583488 4.9882112,15.5686912 4.995072,15.579136 C5.0039808,15.5932672 5.0136064,15.60704 5.0235904,15.6204032 C5.0310656,15.6307968 5.0390016,15.6404224 5.0470912,15.6499456 C5.0577408,15.6623872 5.0689536,15.6749312 5.0807808,15.6866048 C5.0897408,15.6957184 5.098496,15.7048832 5.1080704,15.7132288 C5.1203584,15.724544 5.1332608,15.7353472 5.1465728,15.7457408 C5.1565568,15.7536768 5.166592,15.7616128 5.1771904,15.7689856 C5.1811328,15.7715456 5.1846656,15.7748736 5.1884032,15.7773312 L12.4227072,20.6002176 C12.5369344,20.676352 12.6685696,20.7147008 12.8001024,20.7147008 C12.9314816,20.7147008 13.0630144,20.676352 13.177344,20.6002176 L20.411648,15.7773312 C20.4154368,15.7748736 20.4189184,15.7715456 20.422912,15.7689856 C20.4335104,15.7615616 20.4435456,15.7536768 20.4537344,15.7457408 C20.4668416,15.7353472 20.479744,15.724544 20.4922368,15.7132288 C20.5016064,15.7049344 20.5103616,15.6957184 20.5192704,15.6866048 C20.5311488,15.6749312 20.5424128,15.6623872 20.5532672,15.6499456 C20.561152,15.6403712 20.5690368,15.6307968 20.576512,15.6204032 C20.586752,15.60704 20.5961216,15.5933184 20.6052864,15.579136 C20.6117376,15.5686912 20.6183424,15.5583488 20.6245888,15.547904 C20.6331392,15.5329024 20.6405632,15.517952 20.6477312,15.502592 C20.6529024,15.4917376 20.6582784,15.4809344 20.6629376,15.469568 C20.6695936,15.4529792 20.6749696,15.436288 20.680448,15.419648 C20.6839296,15.4088448 20.6880768,15.3979904 20.6909952,15.3867264 C20.6960128,15.3679872 20.6995456,15.3488384 20.7028736,15.3296896 C20.7045632,15.3201152 20.7070208,15.3101824 20.7084544,15.300608 C20.712192,15.2710144 20.7145472,15.241472 20.7145472,15.21152 L20.7145472,10.3886336 C20.7145472,10.3586816 20.712192,10.3291392 20.7084544,10.3000064 Z M13.4802432,6.8368896 L18.8095488,10.389504 L16.4291072,11.9819776 L13.4802432,10.0093952 L13.4802432,6.8368896 L13.4802432,6.8368896 Z M12.119808,6.8368896 L12.119808,10.0093952 L9.1710976,11.9819776 L6.7904512,10.389504 L12.119808,6.8368896 L12.119808,6.8368896 Z M6.245888,11.6618752 L7.9476736,12.8001024 L6.245888,13.938432 L6.245888,11.6618752 L6.245888,11.6618752 Z M12.119808,18.7633152 L6.7905024,15.2106496 L9.1711488,13.6186368 L12.1198592,15.5908608 L12.1198592,18.7633152 L12.119808,18.7633152 Z M12.8000512,14.4092672 L10.3942656,12.8001024 L12.8000512,11.1909888 L15.2056832,12.8001024 L12.8000512,14.4092672 L12.8000512,14.4092672 Z M13.4802432,18.7633152 L13.4802432,15.5908608 L16.4291072,13.6186368 L18.8095488,15.2106496 L13.4802432,18.7633152 L13.4802432,18.7633152 Z M19.354112,13.9383808 L17.6525824,12.8000512 L19.354112,11.661824 L19.354112,13.9383808 L19.354112,13.9383808 Z" id="Shape"></path>
            </g>
        </g>
        <path d="M12.8359375,0.940185547 C14.5918057,0.940185547 16.236646,1.27319003 17.7705078,1.93920898 C19.3043696,2.60522794 20.6464786,3.50837646 21.796875,4.64868164 C22.9472714,5.78898682 23.8554654,7.12605027 24.5214844,8.65991211 C25.1875033,10.1937739 25.5205078,11.8386143 25.5205078,13.5944824 C25.5205078,15.3503506 25.1875033,16.9951909 24.5214844,18.5290527 C23.8554654,20.0629146 22.9472714,21.4050235 21.796875,22.5554199 C20.6464786,23.7058163 19.3043696,24.6140103 17.7705078,25.2800293 C16.236646,25.9460483 14.5918057,26.2790527 12.8359375,26.2790527 C11.0800693,26.2790527 9.43522902,25.9460483 7.90136719,25.2800293 C6.36750535,24.6140103 5.0304419,23.7058163 3.89013672,22.5554199 C2.74983154,21.4050235 1.84668302,20.0629146 1.18066406,18.5290527 C0.514645107,16.9951909 0.181640625,15.3503506 0.181640625,13.5944824 C0.181640625,11.8386143 0.514645107,10.1937739 1.18066406,8.65991211 C1.84668302,7.12605027 2.74983154,5.78898682 3.89013672,4.64868164 C5.0304419,3.50837646 6.36750535,2.60522794 7.90136719,1.93920898 C9.43522902,1.27319003 11.0800693,0.940185547 12.8359375,0.940185547 Z M19.1328125,10.869873 C19.7181019,10.4258604 20.2327452,9.89103503 20.6767578,9.26538086 C20.3942043,9.38647521 20.1066095,9.48738566 19.8139648,9.56811523 C19.5213202,9.6488448 19.2135433,9.70939107 18.890625,9.74975586 C19.2135433,9.54793193 19.4960925,9.30070133 19.7382812,9.00805664 C19.98047,8.71541195 20.1520177,8.39754403 20.2529297,8.05444336 C19.9501938,8.2159025 19.6373714,8.36222265 19.3144531,8.4934082 C18.9915348,8.62459375 18.6585304,8.72045868 18.3154297,8.78100586 C18.0328762,8.49845236 17.6998717,8.26635833 17.3164062,8.0847168 C16.9329408,7.90307526 16.5091169,7.81225586 16.0449219,7.81225586 C15.6210916,7.81225586 15.2224954,7.89298422 14.8491211,8.05444336 C14.4757468,8.2159025 14.1528334,8.43790549 13.8803711,8.72045898 C13.6079088,9.00301248 13.3909513,9.33097144 13.2294922,9.7043457 C13.068033,10.07772 12.9873047,10.4763162 12.9873047,10.9001465 C12.9873047,11.0212408 12.9923502,11.1423334 13.0024414,11.2634277 C13.0125326,11.3845221 13.0276692,11.4955236 13.0478516,11.5964355 C11.7763608,11.5358884 10.5957086,11.223066 9.50585938,10.657959 C8.41601018,10.092852 7.48763404,9.33602362 6.72070313,8.38745117 C6.43814963,8.8516462 6.296875,9.36628949 6.296875,9.93139648 C6.296875,10.4561387 6.42301306,10.9455544 6.67529297,11.3996582 C6.92757288,11.853762 7.25553184,12.2220852 7.65917969,12.5046387 C7.13443748,12.4642739 6.67024941,12.3330903 6.26660156,12.111084 L6.26660156,12.1413574 C6.26660156,12.9082883 6.50374112,13.5692518 6.97802734,14.1242676 C7.45231357,14.6792834 8.0426397,15.0274244 8.74902344,15.1687012 C8.60774669,15.209066 8.47151758,15.2393391 8.34033203,15.2595215 C8.20914648,15.2797039 8.07291737,15.2897949 7.93164063,15.2897949 C7.83072866,15.2897949 7.73486374,15.2847494 7.64404297,15.2746582 C7.5532222,15.264567 7.45735728,15.2494304 7.35644531,15.229248 C7.55826924,15.8347198 7.91650133,16.3392721 8.43115234,16.7429199 C8.94580335,17.1465678 9.54622053,17.3483887 10.2324219,17.3483887 C9.70767967,17.7722189 9.11735354,18.1001779 8.46142578,18.3322754 C7.80549802,18.5643729 7.12435249,18.6804199 6.41796875,18.6804199 C6.276692,18.6804199 6.14550842,18.6753744 6.02441406,18.6652832 C5.90331971,18.655192 5.78222717,18.6400554 5.66113281,18.619873 C6.34733416,19.0638857 7.08902596,19.4069812 7.88623047,19.6491699 C8.68343498,19.8913586 9.51594618,20.0124512 10.3837891,20.0124512 C11.7965565,20.0124512 13.0478461,19.7450385 14.1376953,19.2102051 C15.2275445,18.6753717 16.1407841,17.9891806 16.8774414,17.1516113 C17.6140987,16.314042 18.1741517,15.3755749 18.5576172,14.3361816 C18.9410826,13.2967884 19.1328125,12.2725474 19.1328125,11.2634277 L19.1328125,10.869873 Z" id="circletwitterbird" fill="#FFFFFF" sketch:type="MSShapeGroup"></path>
        <path d="M50.6845703,0.909912109 C52.4404385,0.909912109 54.0903243,1.24291659 55.6342773,1.90893555 C57.1782304,2.5749545 58.5253849,3.48314854 59.6757812,4.63354492 C60.8261776,5.7839413 61.7343717,7.12605027 62.4003906,8.65991211 C63.0664096,10.1937739 63.3994141,11.8386143 63.3994141,13.5944824 C63.3994141,15.3503506 63.0664096,17.0002364 62.4003906,18.5441895 C61.7343717,20.0881425 60.8261776,21.435297 59.6757812,22.5856934 C58.5253849,23.7360897 57.1782304,24.6442838 55.6342773,25.3103027 C54.0903243,25.9763217 52.4404385,26.3093262 50.6845703,26.3093262 C48.9287022,26.3093262 47.2838618,25.9763217 45.75,25.3103027 C44.2161382,24.6442838 42.8740292,23.7360897 41.7236328,22.5856934 C40.5732364,21.435297 39.6650424,20.0881425 38.9990234,18.5441895 C38.3330045,17.0002364 38,15.3503506 38,13.5944824 C38,11.8386143 38.3330045,10.1937739 38.9990234,8.65991211 C39.6650424,7.12605027 40.5732364,5.7839413 41.7236328,4.63354492 C42.8740292,3.48314854 44.2161382,2.5749545 45.75,1.90893555 C47.2838618,1.24291659 48.9287022,0.909912109 50.6845703,0.909912109 Z M55.4677734,6.44995117 L52.7734375,6.44995117 C52.2486953,6.44995117 51.7643251,6.54077058 51.3203125,6.72241211 C50.8762999,6.90405364 50.4877946,7.14623872 50.1547852,7.44897461 C49.8217757,7.7517105 49.564454,8.09480603 49.3828125,8.47827148 C49.201171,8.86173694 49.1103516,9.24519665 49.1103516,9.62866211 L49.1103516,11.2331543 L46.71875,11.2331543 L46.71875,14.3815918 L49.1103516,14.3815918 L49.1103516,20.7390137 L52.2890625,20.7390137 L52.2890625,14.3815918 L54.6503906,14.3815918 L54.6503906,11.2331543 L52.2890625,11.2331543 L52.2890625,10.4157715 C52.2890625,10.1735828 52.3849274,9.98185292 52.5766602,9.84057617 C52.7683929,9.69929942 52.9348951,9.62866211 53.0761719,9.62866211 L55.4677734,9.62866211 L55.4677734,6.44995117 Z" id="circlefacebook" fill="#FFFFFF" sketch:type="MSShapeGroup"></path>
        <path d="M124.68457,0.925048828 C126.440438,0.925048828 128.085279,1.25805331 129.619141,1.92407227 C131.153002,2.59009122 132.495111,3.49323974 133.645508,4.63354492 C134.795904,5.7738501 135.704098,7.11595908 136.370117,8.65991211 C137.036136,10.2038651 137.369141,11.853751 137.369141,13.6096191 C137.369141,15.3654873 137.036136,17.0103276 136.370117,18.5441895 C135.704098,20.0780513 134.795904,21.4201603 133.645508,22.5705566 C132.495111,23.720953 131.153002,24.6291471 129.619141,25.295166 C128.085279,25.961185 126.440438,26.2941895 124.68457,26.2941895 C122.928702,26.2941895 121.283862,25.961185 119.75,25.295166 C118.216138,24.6291471 116.874029,23.720953 115.723633,22.5705566 C114.573236,21.4201603 113.665042,20.0780513 112.999023,18.5441895 C112.333004,17.0103276 112,15.3654873 112,13.6096191 C112,11.853751 112.333004,10.2038651 112.999023,8.65991211 C113.665042,7.11595908 114.573236,5.7738501 115.723633,4.63354492 C116.874029,3.49323974 118.216138,2.59009122 119.75,1.92407227 C121.283862,1.25805331 122.928702,0.925048828 124.68457,0.925048828 Z M128.438477,13.2160645 C129.265955,13.2160645 129.921873,13.5087048 130.40625,14.0939941 C130.890627,14.6994659 131.132812,15.4159301 131.132812,16.2434082 C131.132812,16.8690624 131.016765,17.4038878 130.784668,17.8479004 C130.55257,18.291913 130.264976,18.6551906 129.921875,18.9377441 C129.578774,19.2202976 129.15495,19.4322096 128.650391,19.5734863 C128.125648,19.7349455 127.636233,19.8358559 127.182129,19.8762207 C126.728025,19.9165855 126.208336,19.9367676 125.623047,19.9367676 L123.836914,19.9367676 C123.271807,19.9367676 122.757164,19.9165855 122.292969,19.8762207 C121.828774,19.8358559 121.334313,19.7349455 120.80957,19.5734863 C120.284828,19.4322096 119.861004,19.2202976 119.538086,18.9377441 C119.194985,18.6551906 118.912436,18.291913 118.69043,17.8479004 C118.468423,17.4038878 118.357422,16.8690624 118.357422,16.2434082 C118.357422,15.4159301 118.599607,14.6994659 119.083984,14.0939941 C119.568362,13.5087048 120.22428,13.2160645 121.051758,13.2160645 C121.213217,13.2160645 121.460448,13.2362465 121.793457,13.2766113 C122.126467,13.3169761 122.555336,13.3674313 123.080078,13.4279785 C123.322267,13.4683433 123.584634,13.4986164 123.867188,13.5187988 C124.149741,13.5389812 124.442381,13.5490723 124.745117,13.5490723 C125.027671,13.5490723 125.31022,13.5389812 125.592773,13.5187988 C125.875327,13.4986164 126.137694,13.4683433 126.379883,13.4279785 C126.924807,13.3674313 127.363768,13.3169761 127.696777,13.2766113 C128.029787,13.2362465 128.277017,13.2160645 128.438477,13.2160645 Z M122.141602,17.9084473 C122.46452,17.5249818 122.651204,17.111249 122.70166,16.6672363 C122.752116,16.2232237 122.716797,15.7993998 122.595703,15.395752 C122.494791,15.0930161 122.33838,14.8205579 122.126465,14.5783691 C121.91455,14.3361804 121.667319,14.2150879 121.384766,14.2150879 C121.102212,14.2150879 120.839845,14.3361804 120.597656,14.5783691 C120.29492,14.9618346 120.118327,15.3755674 120.067871,15.8195801 C120.017415,16.2635927 120.042643,16.6874166 120.143555,17.0910645 C120.244467,17.3938003 120.400878,17.6662586 120.612793,17.9084473 C120.824708,18.150636 121.08203,18.2717285 121.384766,18.2717285 C121.667319,18.2717285 121.919595,18.150636 122.141602,17.9084473 Z M128.862305,17.9084473 C129.185223,17.5249818 129.371907,17.111249 129.422363,16.6672363 C129.472819,16.2232237 129.42741,15.7993998 129.286133,15.395752 C129.205403,15.0930161 129.059083,14.8205579 128.847168,14.5783691 C128.635253,14.3361804 128.388022,14.2150879 128.105469,14.2150879 C127.822915,14.2150879 127.560548,14.3361804 127.318359,14.5783691 C127.015623,14.9618346 126.83903,15.3755674 126.788574,15.8195801 C126.738118,16.2635927 126.763346,16.6874166 126.864258,17.0910645 C126.96517,17.3938003 127.121581,17.6662586 127.333496,17.9084473 C127.545411,18.150636 127.802733,18.2717285 128.105469,18.2717285 C128.388022,18.2717285 128.640298,18.150636 128.862305,17.9084473 Z M132.828125,17.8781738 C133.251955,17.0103309 133.463867,15.8498608 133.463867,14.3967285 C133.463867,12.7014075 132.989588,11.3088433 132.041016,10.2189941 C132.222657,9.65388715 132.313477,9.06860654 132.313477,8.46313477 C132.313477,7.67602146 132.141929,6.90910204 131.798828,6.16235352 C131.072262,6.16235352 130.406253,6.30362814 129.800781,6.58618164 C129.518228,6.72745839 129.215496,6.90405167 128.892578,7.1159668 C128.56966,7.32788192 128.216473,7.57511252 127.833008,7.85766602 C126.9248,7.6154773 125.945969,7.49438477 124.896484,7.49438477 C124.331377,7.49438477 123.781415,7.52970342 123.246582,7.6003418 C122.711749,7.67098017 122.181969,7.7668451 121.657227,7.88793945 C120.890296,7.28246768 120.224287,6.84855274 119.65918,6.58618164 C119.053708,6.30362814 118.39779,6.16235352 117.691406,6.16235352 C117.328123,6.88891965 117.146484,7.65583906 117.146484,8.46313477 C117.146484,9.08878894 117.237304,9.68416059 117.418945,10.2492676 C116.470373,11.3592992 115.996094,12.7417723 115.996094,14.3967285 C115.996094,15.8498608 116.218097,17.0103309 116.662109,17.8781738 C116.985028,18.5845576 117.484534,19.1446106 118.160645,19.5583496 C118.836755,19.9720887 119.538082,20.2697745 120.264648,20.451416 C120.789391,20.6128752 121.324216,20.7238767 121.869141,20.7844238 C122.151694,20.8247886 122.424152,20.8550617 122.686523,20.8752441 C122.948895,20.8954265 123.19108,20.9055176 123.413086,20.9055176 C123.635092,20.9257 123.867186,20.935791 124.109375,20.935791 L124.896484,20.935791 L125.819824,20.935791 C126.112469,20.935791 126.389973,20.9257 126.652344,20.9055176 C126.914715,20.8853352 127.192219,20.8550621 127.484863,20.8146973 C127.777508,20.7743325 128.095376,20.7238773 128.438477,20.6633301 C129.14486,20.5422357 129.740232,20.380779 130.224609,20.1789551 C130.749352,19.9569488 131.243813,19.6491719 131.708008,19.2556152 C132.172203,18.8620586 132.545572,18.402916 132.828125,17.8781738 Z" id="circlegithubalt" fill="#FFFFFF" sketch:type="MSShapeGroup"></path>
        <path d="M87.6845703,0.940185547 C89.4404385,0.940185547 91.0852788,1.27319003 92.6191406,1.93920898 C94.1530025,2.60522794 95.4900659,3.50837646 96.6303711,4.64868164 C97.7706763,5.78898682 98.6738248,7.12605027 99.3398438,8.65991211 C100.005863,10.1937739 100.338867,11.8386143 100.338867,13.5944824 C100.338867,15.3503506 100.005863,16.9951909 99.3398438,18.5290527 C98.6738248,20.0629146 97.7706763,21.4050235 96.6303711,22.5554199 C95.4900659,23.7058163 94.1530025,24.6140103 92.6191406,25.2800293 C91.0852788,25.9460483 89.4404385,26.2790527 87.6845703,26.2790527 C85.9287022,26.2790527 84.2838618,25.9460483 82.75,25.2800293 C81.2161382,24.6140103 79.8740292,23.7058163 78.7236328,22.5554199 C77.5732364,21.4050235 76.6650424,20.0629146 75.9990234,18.5290527 C75.3330045,16.9951909 75,15.3503506 75,13.5944824 C75,11.8386143 75.3330045,10.1937739 75.9990234,8.65991211 C76.6650424,7.12605027 77.5732364,5.78898682 78.7236328,4.64868164 C79.8740292,3.50837646 81.2161382,2.60522794 82.75,1.93920898 C84.2838618,1.27319003 85.9287022,0.940185547 87.6845703,0.940185547 Z M86.6855469,9.90112305 L91.6201172,13.8972168 L92.6191406,12.6862793 L87.6845703,8.69018555 L86.6855469,9.90112305 Z M84.8994141,13.2614746 L90.5908203,16.0466309 L91.2871094,14.6237793 L85.5957031,11.838623 L84.8994141,13.2614746 Z M83.8701172,16.9245605 L90.0458984,18.3474121 L90.4091797,16.8034668 L84.2333984,15.3806152 L83.8701172,16.9245605 Z M83.71875,20.7390137 L90.0458984,20.7390137 L90.0458984,19.1345215 L83.71875,19.1345215 L83.71875,20.7390137 Z M93.2246094,14.3815918 L91.6201172,14.3815918 L91.6201172,21.526123 L82.1445312,21.526123 L82.1445312,14.3815918 L80.5400391,14.3815918 L80.5400391,23.1003418 L93.2246094,23.1003418 L93.2246094,14.3815918 Z M94.3447266,11.0817871 L90.4697266,6.08666992 L89.2285156,7.05541992 L93.1035156,12.0505371 L94.3447266,11.0817871 Z M96.4033203,9.93139648 L93.7392578,4.17944336 L92.3164062,4.84545898 L94.9804688,10.5974121 L96.4033203,9.93139648 Z" id="circlestackoverflow" fill="#FFFFFF" sketch:type="MSShapeGroup"></path>
        <path d="M167.436523,0.940185547 C169.192392,0.940185547 170.837232,1.27319003 172.371094,1.93920898 C173.904956,2.60522794 175.247065,3.50837646 176.397461,4.64868164 C177.547857,5.78898682 178.456051,7.12605027 179.12207,8.65991211 C179.788089,10.1937739 180.121094,11.8386143 180.121094,13.5944824 C180.121094,15.3503506 179.788089,16.9951909 179.12207,18.5290527 C178.456051,20.0629146 177.547857,21.4050235 176.397461,22.5554199 C175.247065,23.7058163 173.904956,24.6140103 172.371094,25.2800293 C170.837232,25.9460483 169.192392,26.2790527 167.436523,26.2790527 C165.680655,26.2790527 164.035815,25.9460483 162.501953,25.2800293 C160.968091,24.6140103 159.631028,23.7058163 158.490723,22.5554199 C157.350417,21.4050235 156.447269,20.0629146 155.78125,18.5290527 C155.115231,16.9951909 154.782227,15.3503506 154.782227,13.5944824 C154.782227,11.8386143 155.115231,10.1937739 155.78125,8.65991211 C156.447269,7.12605027 157.350417,5.78898682 158.490723,4.64868164 C159.631028,3.50837646 160.968091,2.60522794 162.501953,1.93920898 C164.035815,1.27319003 165.680655,0.940185547 167.436523,0.940185547 Z M163.500977,10.4460449 L160.322266,10.4460449 L160.322266,20.7390137 L163.500977,20.7390137 L163.500977,10.4460449 Z M161.896484,9.62866211 C162.340497,9.62866211 162.718911,9.47729644 163.031738,9.17456055 C163.344565,8.87182466 163.500977,8.498456 163.500977,8.05444336 C163.500977,7.61043072 163.344565,7.23706206 163.031738,6.93432617 C162.718911,6.63159028 162.340497,6.48022461 161.896484,6.48022461 C161.452472,6.48022461 161.079103,6.63159028 160.776367,6.93432617 C160.473631,7.23706206 160.322266,7.61043072 160.322266,8.05444336 C160.322266,8.498456 160.473631,8.87182466 160.776367,9.17456055 C161.079103,9.47729644 161.452472,9.62866211 161.896484,9.62866211 Z M174.581055,14.7751465 C174.581055,14.0485804 174.379234,13.3371617 173.975586,12.6408691 C173.571938,11.9445766 173.047204,11.4147967 172.401367,11.0515137 C171.816078,10.7285954 171.134932,10.5570476 170.35791,10.5368652 C169.580888,10.5166828 168.869469,10.6478664 168.223633,10.9304199 L168.223633,10.4460449 L165.075195,10.4460449 L165.075195,20.7390137 L168.223633,20.7390137 L168.223633,14.4421387 L169.555664,13.8063965 C169.717123,13.7256669 169.934081,13.6853027 170.206543,13.6853027 C170.479005,13.6853027 170.695963,13.735758 170.857422,13.8366699 C170.978516,13.8972171 171.099609,14.0284007 171.220703,14.2302246 C171.341797,14.4320485 171.402344,14.6136873 171.402344,14.7751465 L171.402344,20.7390137 L174.581055,20.7390137 L174.581055,14.7751465 Z" id="circlelinkedin" fill="#FFFFFF" sketch:type="MSShapeGroup"></path>
    </g>
</svg>